o Default
v -0.3125 -0.3125 0.18749994039535522
v -0.3125 0.375 0.18749994039535522
v 0.25 0.375 0.18749994039535522
v 0.25 -0.3125 0.18749994039535522
v -0.3125 -0.3125 1.3969838619232178e-8
v -0.3125 0.375 0.18749994039535522
v -0.3125 0.375 1.3969838619232178e-8
v -0.3125 -0.3125 0.18749994039535522
v -0.3125 -0.3125 1.3969838619232178e-8
v 0.25 -0.3125 0.18749994039535522
v -0.3125 -0.3125 0.18749994039535522
v 0.25 -0.3125597834587097 0.000031262872653314844
v 0.25 -0.3125 0.18749994039535522
v 0.25 0.37500011920928955 2.7474015951156616e-8
v 0.25 0.375 0.18749994039535522
v 0.25 -0.3125597834587097 0.000031262872653314844
v -0.3125 0.375 0.18749994039535522
v 0.25 0.37500011920928955 2.7474015951156616e-8
v -0.3125 0.375 1.3969838619232178e-8
v 0.25 0.375 0.18749994039535522
v -0.25 -0.9187962412834167 0.12504374980926514
v 0.1875 -0.29379624128341675 0.12504374980926514
v -0.25 -0.29379624128341675 0.12504374980926514
v 0.1875 -0.9187962412834167 0.12504374980926514
v 0.1875 -0.9187962412834167 0.12504374980926514
v 0.1875 -0.29379624128341675 0.00004375218850327656
v 0.1875 -0.29379624128341675 0.12504374980926514
v 0.1875 -0.9187962412834167 0.00004375218850327656
v -0.25 -0.9187962412834167 0.00004375218850327656
v -0.25 -0.29379624128341675 0.12504374980926514
v -0.25 -0.29379624128341675 0.00004375218850327656
v -0.25 -0.9187962412834167 0.12504374980926514
v 0.25 -0.15787193179130554 0.03250981122255325
v 0.3125 -0.1980413794517517 0.08039160817861557
v 0.25 -0.1980413794517517 0.08039160817861557
v 0.3125 -0.15787193179130554 0.03250981122255325
v 0.25 -0.1980413794517517 0.08039160817861557
v 0.3125 -0.15009935200214386 0.12056263536214828
v 0.25 -0.15009935200214386 0.12056263536214828
v 0.3125 -0.1980413794517517 0.08039160817861557
v 0.25 -0.15009935200214386 0.12056263536214828
v 0.3125 -0.10998867452144623 0.07268865406513214
v 0.25 -0.10998867452144623 0.07268865406513214
v 0.3125 -0.15009935200214386 0.12056263536214828
v 0.3125 -0.15787193179130554 0.03250981122255325
v 0.25 -0.10998867452144623 0.07268865406513214
v 0.3125 -0.10998867452144623 0.07268865406513214
v 0.25 -0.15787193179130554 0.03250981122255325
v 0.3125 -0.15787193179130554 0.03250981122255325
v 0.375 -0.19803956151008606 0.08039313554763794
v 0.3125 -0.1980413794517517 0.08039160817861557
v 0.375 -0.1578701287508011 0.032511334866285324
v 0.3125 -0.1980413794517517 0.08039160817861557
v 0.375 0.18504509329795837 0.40178221464157104
v 0.3125 0.18504509329795837 0.40178221464157104
v 0.375 -0.19803956151008606 0.08039313554763794
v 0.375 -0.19803956151008606 0.08039313554763794
v 0.375 0.22521932423114777 0.35390445590019226
v 0.375 0.18504509329795837 0.40178221464157104
v 0.375 -0.1578701287508011 0.032511334866285324
v 0.375 -0.1578701287508011 0.032511334866285324
v 0.3125 0.22521932423114777 0.35390445590019226
v 0.375 0.22521932423114777 0.35390445590019226
v 0.3125 -0.15787193179130554 0.03250981122255325
v 0.3125 -0.15787193179130554 0.03250981122255325
v 0.3125 0.18504509329795837 0.40178221464157104
v 0.3125 0.22521932423114777 0.35390445590019226
v 0.3125 -0.1980413794517517 0.08039160817861557
v 0.3125 0.18504509329795837 0.40178221464157104
v 0.375 0.22521932423114777 0.35390445590019226
v 0.3125 0.22521932423114777 0.35390445590019226
v 0.375 0.18504509329795837 0.40178221464157104
vt 0.06666667014360428 0.75
vt 0.21666666865348816 0.9333333373069763
vt 0.06666667014360428 0.9333333373069763
vt 0.06666667014360428 0.75
vt 0.21666666865348816 0.75
vt 0.21666666865348816 0.9333333373069763
vt 0.01666666753590107 0.75
vt 0.06666667014360428 0.9333333373069763
vt 0.01666666753590107 0.9333333373069763
vt 0.01666666753590107 0.75
vt 0.06666667014360428 0.75
vt 0.06666667014360428 0.9333333373069763
vt 0.06666667014360428 0.699999988079071
vt 0.18333333730697632 0.75
vt 0.06666667014360428 0.75
vt 0.06666667014360428 0.699999988079071
vt 0.18333333730697632 0.699999988079071
vt 0.18333333730697632 0.75
vt 0.21666666865348816 0.75
vt 0.2666666805744171 0.9333333373069763
vt 0.21666666865348816 0.9333333373069763
vt 0.21666666865348816 0.75
vt 0.2666666805744171 0.75
vt 0.2666666805744171 0.9333333373069763
vt 0.06666667014360428 0.9333333373069763
vt 0.18333333730697632 0.9833333492279053
vt 0.06666667014360428 0.9833333492279053
vt 0.06666667014360428 0.9333333373069763
vt 0.18333333730697632 0.9333333373069763
vt 0.18333333730697632 0.9833333492279053
vt 0.0833333358168602 0.5166666507720947
vt 0.20000000298023224 0.6833333373069763
vt 0.0833333358168602 0.6833333373069763
vt 0.0833333358168602 0.5166666507720947
vt 0.20000000298023224 0.5166666507720947
vt 0.20000000298023224 0.6833333373069763
vt 0.20000000298023224 0.5166666507720947
vt 0.23333333432674408 0.6833333373069763
vt 0.20000000298023224 0.6833333373069763
vt 0.20000000298023224 0.5166666507720947
vt 0.23333333432674408 0.5166666507720947
vt 0.23333333432674408 0.6833333373069763
vt 0.05000000074505806 0.5166666507720947
vt 0.0833333358168602 0.6833333373069763
vt 0.05000000074505806 0.6833333373069763
vt 0.05000000074505806 0.5166666507720947
vt 0.0833333358168602 0.5166666507720947
vt 0.0833333358168602 0.6833333373069763
vt 0.38333332538604736 0.7833333611488342
vt 0.4000000059604645 0.800000011920929
vt 0.38333332538604736 0.800000011920929
vt 0.38333332538604736 0.7833333611488342
vt 0.4000000059604645 0.7833333611488342
vt 0.4000000059604645 0.800000011920929
vt 0.38333332538604736 0.7666666507720947
vt 0.4000000059604645 0.7833333611488342
vt 0.38333332538604736 0.7833333611488342
vt 0.38333332538604736 0.7666666507720947
vt 0.4000000059604645 0.7666666507720947
vt 0.4000000059604645 0.7833333611488342
vt 0.38333332538604736 0.8166666626930237
vt 0.4000000059604645 0.8333333134651184
vt 0.38333332538604736 0.8333333134651184
vt 0.38333332538604736 0.8166666626930237
vt 0.4000000059604645 0.8166666626930237
vt 0.4000000059604645 0.8333333134651184
vt 0.38333332538604736 0.7666666507720947
vt 0.4000000059604645 0.7833333611488342
vt 0.38333332538604736 0.7833333611488342
vt 0.38333332538604736 0.7666666507720947
vt 0.4000000059604645 0.7666666507720947
vt 0.4000000059604645 0.7833333611488342
vt 0.4333333373069763 0.75
vt 0.44999998807907104 0.7666666507720947
vt 0.4333333373069763 0.7666666507720947
vt 0.4333333373069763 0.75
vt 0.44999998807907104 0.75
vt 0.44999998807907104 0.7666666507720947
vt 0.44999998807907104 0.7666666507720947
vt 0.46666666865348816 0.8999999761581421
vt 0.44999998807907104 0.8999999761581421
vt 0.44999998807907104 0.7666666507720947
vt 0.46666666865348816 0.7666666507720947
vt 0.46666666865348816 0.8999999761581421
vt 0.46666666865348816 0.7666666507720947
vt 0.4833333194255829 0.8999999761581421
vt 0.46666666865348816 0.8999999761581421
vt 0.46666666865348816 0.7666666507720947
vt 0.4833333194255829 0.7666666507720947
vt 0.4833333194255829 0.8999999761581421
vt 0.4166666567325592 0.7666666507720947
vt 0.4333333373069763 0.8999999761581421
vt 0.4166666567325592 0.8999999761581421
vt 0.4166666567325592 0.7666666507720947
vt 0.4333333373069763 0.7666666507720947
vt 0.4333333373069763 0.8999999761581421
vt 0.4333333373069763 0.7666666507720947
vt 0.44999998807907104 0.8999999761581421
vt 0.4333333373069763 0.8999999761581421
vt 0.4333333373069763 0.7666666507720947
vt 0.44999998807907104 0.7666666507720947
vt 0.44999998807907104 0.8999999761581421
vt 0.4333333373069763 0.8999999761581421
vt 0.44999998807907104 0.9166666865348816
vt 0.4333333373069763 0.9166666865348816
vt 0.4333333373069763 0.8999999761581421
vt 0.44999998807907104 0.8999999761581421
vt 0.44999998807907104 0.9166666865348816
vn 0 0 1
vn 0 0 1
vn 0 0 1
vn 0 0 1
vn 0 0 1
vn 0 0 1
vn -1 0 0
vn -1 0 0
vn -1 0 0
vn -1 0 0
vn -1 0 0
vn -1 0 0
vn 0 -1 0
vn 0 -1 0
vn 0 -1 0
vn -0.00010629941432211795 -0.9999999435021312 0.00031889836810119484
vn -0.00010629941432211795 -0.9999999435021312 0.00031889836810119484
vn -0.00010629941432211795 -0.9999999435021312 0.00031889836810119484
vn 1 0 0
vn 1 0 0
vn 1 0 0
vn 1 0 0
vn 1 0 0
vn 1 0 0
vn -2.119276258680508e-7 0.9999999999999776 0
vn -2.119276258680508e-7 0.9999999999999776 0
vn -2.119276258680508e-7 0.9999999999999776 0
vn 0 0.9999999999997978 6.357831728741566e-7
vn 0 0.9999999999997978 6.357831728741566e-7
vn 0 0.9999999999997978 6.357831728741566e-7
vn 0 0 1
vn 0 0 1
vn 0 0 1
vn 0 0 1
vn 0 0 1
vn 0 0 1
vn 1 0 0
vn 1 0 0
vn 1 0 0
vn 1 0 0
vn 1 0 0
vn 1 0 0
vn -1 0 0
vn -1 0 0
vn -1 0 0
vn -1 0 0
vn -1 0 0
vn -1 0 0
vn 0 -0.7661086527362644 -0.6427110798816414
vn 0 -0.7661086527362644 -0.6427110798816414
vn 0 -0.7661086527362644 -0.6427110798816414
vn 0 -0.7661086527362644 -0.6427110798816414
vn 0 -0.7661086527362644 -0.6427110798816414
vn 0 -0.7661086527362644 -0.6427110798816414
vn 0 -0.6422516370747712 0.7664938582107338
vn 0 -0.6422516370747712 0.7664938582107338
vn 0 -0.6422516370747712 0.7664938582107338
vn 0 -0.6422516370747712 0.7664938582107338
vn 0 -0.6422516370747712 0.7664938582107338
vn 0 -0.6422516370747712 0.7664938582107338
vn 0 0.766520130418336 0.6422202812613885
vn 0 0.766520130418336 0.6422202812613885
vn 0 0.766520130418336 0.6422202812613885
vn 0 0.766520130418336 0.6422202812613885
vn 0 0.766520130418336 0.6422202812613885
vn 0 0.766520130418336 0.6422202812613885
vn 0 0.6427877911387028 -0.766044290862498
vn 0 0.6427877911387028 -0.766044290862498
vn 0 0.6427877911387028 -0.766044290862498
vn 0 0.6427877911387028 -0.766044290862498
vn 0 0.6427877911387028 -0.766044290862498
vn 0 0.6427877911387028 -0.766044290862498
vn 0.00003799036531608227 -0.7661086521834146 -0.6427110794178394
vn 0.00003799036531608227 -0.7661086521834146 -0.6427110794178394
vn 0.00003799036531608227 -0.7661086521834146 -0.6427110794178394
vn 0.000037769402184676754 -0.7661087942052389 -0.6427109101414624
vn 0.000037769402184676754 -0.7661087942052389 -0.6427109101414624
vn 0.000037769402184676754 -0.7661087942052389 -0.6427109101414624
vn 0 -0.6427205847051132 0.7661006787598594
vn 0 -0.6427205847051132 0.7661006787598594
vn 0 -0.6427205847051132 0.7661006787598594
vn -2.7038759557272694e-8 -0.6427205821160558 0.7661006809319504
vn -2.7038759557272694e-8 -0.6427205821160558 0.7661006809319504
vn -2.7038759557272694e-8 -0.6427205821160558 0.7661006809319504
vn 1 0 0
vn 1 0 0
vn 1 0 0
vn 1 0 0
vn 1 0 0
vn 1 0 0
vn 0 0.6427206014931164 -0.7661006646755546
vn 0 0.6427206014931164 -0.7661006646755546
vn 0 0.6427206014931164 -0.7661006646755546
vn 1.346105377952152e-7 0.642720614382447 -0.7661006538620313
vn 1.346105377952152e-7 0.642720614382447 -0.7661006538620313
vn 1.346105377952152e-7 0.642720614382447 -0.7661006538620313
vn -1 0 0
vn -1 0 0
vn -1 0 0
vn -1 0 0
vn -1 0 0
vn -1 0 0
vn 0 0.7660442758457514 0.6427878090349555
vn 0 0.7660442758457514 0.6427878090349555
vn 0 0.7660442758457514 0.6427878090349555
vn 0 0.7660442758457514 0.6427878090349555
vn 0 0.7660442758457514 0.6427878090349555
vn 0 0.7660442758457514 0.6427878090349555
g Scene
f 1/1/1 3/2/2 2/3/3
f 1/4/4 4/5/5 3/6/6
f 5/7/7 6/8/8 7/9/9
f 5/10/10 8/11/11 6/12/12
f 9/13/13 10/14/14 11/15/15
f 9/16/16 12/17/17 10/18/18
f 13/19/19 14/20/20 15/21/21
f 13/22/22 16/23/23 14/24/24
f 17/25/25 18/26/26 19/27/27
f 17/28/28 20/29/29 18/30/30
f 21/31/31 22/32/32 23/33/33
f 21/34/34 24/35/35 22/36/36
f 25/37/37 26/38/38 27/39/39
f 25/40/40 28/41/41 26/42/42
f 29/43/43 30/44/44 31/45/45
f 29/46/46 32/47/47 30/48/48
f 33/49/49 34/50/50 35/51/51
f 33/52/52 36/53/53 34/54/54
f 37/55/55 38/56/56 39/57/57
f 37/58/58 40/59/59 38/60/60
f 41/61/61 42/62/62 43/63/63
f 41/64/64 44/65/65 42/66/66
f 45/67/67 46/68/68 47/69/69
f 45/70/70 48/71/71 46/72/72
f 49/73/73 50/74/74 51/75/75
f 49/76/76 52/77/77 50/78/78
f 53/79/79 54/80/80 55/81/81
f 53/82/82 56/83/83 54/84/84
f 57/85/85 58/86/86 59/87/87
f 57/88/88 60/89/89 58/90/90
f 61/91/91 62/92/92 63/93/93
f 61/94/94 64/95/95 62/96/96
f 65/97/97 66/98/98 67/99/99
f 65/100/100 68/101/101 66/102/102
f 69/103/103 70/104/104 71/105/105
f 69/106/106 72/107/107 70/108/108
