o Default
v -0.062499966472387314 0.18752489984035492 -0.37494993209838867
v -2.3125 0.18748115003108978 -0.37494993209838867
v -2.3125 -0.0000188493613677565 0.06255005300045013
v -0.062499966472387314 0.000024900447897380218 0.06255005300045013
v -0.062499966472387314 0.000024900447897380218 0.06255005300045013
v -2.3125 0.18748627603054047 0.5000500679016113
v -2.3125 -0.0000188493613677565 0.06255005300045013
v -0.06249994412064552 0.1875300258398056 0.5000500679016113
v -0.06249994412064552 0.1875300258398056 0.5000500679016113
v -2.3125 0.37502747774124146 0.06255003809928894
v -2.3125 0.18748627603054047 0.5000500679016113
v -0.062499940395355225 0.3749837279319763 0.06255003809928894
v -0.062499940395355225 0.3749837279319763 0.06255003809928894
v -2.3125 0.18748115003108978 -0.37494993209838867
v -2.3125 0.37502747774124146 0.06255003809928894
v -0.062499966472387314 0.18752489984035492 -0.37494993209838867
v -2.3125 0.18748627603054047 0.5000500679016113
v -2.75 0.18752747774124146 0.06255000829696655
v -2.75 0.18752747774124146 0.06255000829696655
v -2.3125 0.37502747774124146 0.06255003809928894
v -2.3125 0.37502747774124146 0.06255003809928894
v -2.75 0.18752747774124146 0.06255000829696655
v -2.75 0.18752747774124146 0.06255000829696655
v -2.3125 0.18748115003108978 -0.37494993209838867
v -2.3125 -0.0000188493613677565 0.06255005300045013
v -2.75 0.18752747774124146 0.06255000829696655
v -2.75 0.18752747774124146 0.06255000829696655
v -2.3125 0.18748627603054047 0.5000500679016113
v -2.3125 0.18748115003108978 -0.37494993209838867
v -2.75 0.18752747774124146 0.06255000829696655
v -2.75 0.18752747774124146 0.06255000829696655
v -2.3125 -0.0000188493613677565 0.06255005300045013
v -5.737092578783631e-9 0.5812110304832458 0.06255009770393372
v -0.062499966472387314 0.18752489984035492 -0.37494993209838867
v -0.062499940395355225 0.3749837279319763 0.06255003809928894
v -5.737092578783631e-9 0.18745028972625732 -0.8561998605728149
v -8.381903171539307e-9 0.18746106326580048 0.9813001155853271
v -0.062499940395355225 0.3749837279319763 0.06255003809928894
v -0.06249994412064552 0.1875300258398056 0.5000500679016113
v -5.737092578783631e-9 0.5812110304832458 0.06255009770393372
v -5.737092578783631e-9 0.18745028972625732 -0.8561998605728149
v -0.062499966472387314 0.000024900447897380218 0.06255005300045013
v -0.062499966472387314 0.18752489984035492 -0.37494993209838867
v 2.5669578462839127e-8 -0.2062024474143982 0.06255015730857849
v 2.5669578462839127e-8 -0.2062024474143982 0.06255015730857849
v -0.06249994412064552 0.1875300258398056 0.5000500679016113
v -0.062499966472387314 0.000024900447897380218 0.06255005300045013
v -8.381903171539307e-9 0.18746106326580048 0.9813001155853271
v -5.737092578783631e-9 0.5812110304832458 0.06255009770393372
v 0.06250005215406418 0.1875223070383072 0.28130003809928894
v 0.06250005215406418 0.37502744793891907 0.06255015730857849
v -8.381903171539307e-9 0.18746106326580048 0.9813001155853271
v -5.737092578783631e-9 0.18745028972625732 -0.8561998605728149
v 0.06250005215406418 0.37502744793891907 0.06255015730857849
v 0.0625000074505806 0.18752746284008026 -0.15619993209838867
v -5.737092578783631e-9 0.5812110304832458 0.06255009770393372
v 2.5669578462839127e-8 -0.2062024474143982 0.06255015730857849
v 0.0625000074505806 0.18752746284008026 -0.15619993209838867
v 0.0625 -0.000018853119399864227 0.06255004554986954
v -5.737092578783631e-9 0.18745028972625732 -0.8561998605728149
v -8.381903171539307e-9 0.18746106326580048 0.9813001155853271
v 0.0625 -0.000018853119399864227 0.06255004554986954
v 0.06250005215406418 0.1875223070383072 0.28130003809928894
v 2.5669578462839127e-8 -0.2062024474143982 0.06255015730857849
v 0.8125 0.3749837279319763 0.06255007535219193
v 0.0625000074505806 0.18752746284008026 -0.15619993209838867
v 0.06250005215406418 0.37502744793891907 0.06255015730857849
v 0.8125 0.18747858703136444 -0.15619991719722748
v 0.8125 0.18748372793197632 0.28130006790161133
v 0.06250005215406418 0.37502744793891907 0.06255015730857849
v 0.06250005215406418 0.1875223070383072 0.28130003809928894
v 0.8125 0.3749837279319763 0.06255007535219193
v 0.8125 0.0000249032091232948 0.06255008280277252
v 0.06250005215406418 0.1875223070383072 0.28130003809928894
v 0.0625 -0.000018853119399864227 0.06255004554986954
v 0.8125 0.18748372793197632 0.28130006790161133
v 0.8125 0.18747858703136444 -0.15619991719722748
v 0.0625 -0.000018853119399864227 0.06255004554986954
v 0.0625000074505806 0.18752746284008026 -0.15619993209838867
v 0.8125 0.0000249032091232948 0.06255008280277252
v 0.9375 0.3984186351299286 0.06255010515451431
v 0.8125 0.18747858703136444 -0.15619991719722748
v 0.8125 0.3749837279319763 0.06255007535219193
v 0.9375 0.18747536838054657 -0.1835436373949051
v 0.9375 0.18748115003108978 0.30864381790161133
v 0.8125 0.3749837279319763 0.06255007535219193
v 0.8125 0.18748372793197632 0.28130006790161133
v 0.9375 0.3984186351299286 0.06255010515451431
v 0.9375 -0.023410022258758545 0.06255006045103073
v 0.8125 0.18748372793197632 0.28130006790161133
v 0.8125 0.0000249032091232948 0.06255008280277252
v 0.9375 0.18748115003108978 0.30864381790161133
v 0.9375 0.18747536838054657 -0.1835436373949051
v 0.8125 0.0000249032091232948 0.06255008280277252
v 0.8125 0.18747858703136444 -0.15619991719722748
v 0.9375 -0.023410022258758545 0.06255006045103073
v 0.9375 0.18747536838054657 -0.1835436373949051
v 1.0625 0.18750430643558502 0.0625501275062561
v 1.0625 0.18750430643558502 0.0625501275062561
v 0.9375 0.3984186351299286 0.06255010515451431
v 0.9375 0.18748115003108978 0.30864381790161133
v 1.0625 0.18750430643558502 0.0625501275062561
v 1.0625 0.18750430643558502 0.0625501275062561
v 0.9375 -0.023410022258758545 0.06255006045103073
v 0.9375 0.3984186351299286 0.06255010515451431
v 1.0625 0.18750430643558502 0.0625501275062561
v 1.0625 0.18750430643558502 0.0625501275062561
v 0.9375 0.18748115003108978 0.30864381790161133
v 0.9375 -0.023410022258758545 0.06255006045103073
v 1.0625 0.18750430643558502 0.0625501275062561
v 1.0625 0.18750430643558502 0.0625501275062561
v 0.9375 0.18747536838054657 -0.1835436373949051
vt 0.38750001788139343 0.925000011920929
vt 0.4312500059604645 0.96875
vt 0.38750001788139343 0.96875
vt 0.38750001788139343 0.925000011920929
vt 0.4312500059604645 0.925000011920929
vt 0.4312500059604645 0.96875
vt 0.3187500238418579 0.9187500476837158
vt 0.36250001192092896 0.9625000357627869
vt 0.3187500238418579 0.9625000357627869
vt 0.3187500238418579 0.9187500476837158
vt 0.36250001192092896 0.9187500476837158
vt 0.36250001192092896 0.9625000357627869
vt 0.13750001788139343 0.9437500238418579
vt 0.18125000596046448 0.987500011920929
vt 0.13750001788139343 0.987500011920929
vt 0.13750001788139343 0.9437500238418579
vt 0.18125000596046448 0.9437500238418579
vt 0.18125000596046448 0.987500011920929
vt 0.2562500238418579 0.925000011920929
vt 0.30000001192092896 0.96875
vt 0.2562500238418579 0.96875
vt 0.2562500238418579 0.925000011920929
vt 0.30000001192092896 0.925000011920929
vt 0.30000001192092896 0.96875
vt 0.1625000238418579 0.9000000953674316
vt 0.20625001192092896 0.9437500834465027
vt 0.1625000238418579 0.9437500834465027
vt 0.1625000238418579 0.9000000953674316
vt 0.20625001192092896 0.9000000953674316
vt 0.20625001192092896 0.9437500834465027
vt 0.2562500238418579 0.925000011920929
vt 0.30000001192092896 0.96875
vt 0.2562500238418579 0.96875
vt 0.2562500238418579 0.925000011920929
vt 0.30000001192092896 0.925000011920929
vt 0.30000001192092896 0.96875
vt 0.3187500238418579 0.9187500476837158
vt 0.36250001192092896 0.9625000357627869
vt 0.3187500238418579 0.9625000357627869
vt 0.3187500238418579 0.9187500476837158
vt 0.36250001192092896 0.9187500476837158
vt 0.36250001192092896 0.9625000357627869
vt 0.38750001788139343 0.918749988079071
vt 0.4312500059604645 0.9624999761581421
vt 0.38750001788139343 0.9624999761581421
vt 0.38750001788139343 0.918749988079071
vt 0.4312500059604645 0.918749988079071
vt 0.4312500059604645 0.9624999761581421
vt 0.6312500238418579 0.918749988079071
vt 0.6749999523162842 0.9624999761581421
vt 0.6312500238418579 0.9624999761581421
vt 0.6312500238418579 0.918749988079071
vt 0.6749999523162842 0.918749988079071
vt 0.6749999523162842 0.9624999761581421
vt 0.512499988079071 0.9375
vt 0.5562499761581421 0.981249988079071
vt 0.512499988079071 0.981249988079071
vt 0.512499988079071 0.9375
vt 0.5562499761581421 0.9375
vt 0.5562499761581421 0.981249988079071
vt 0.762499988079071 0.918749988079071
vt 0.8062499761581421 0.9624999761581421
vt 0.762499988079071 0.9624999761581421
vt 0.762499988079071 0.918749988079071
vt 0.8062499761581421 0.918749988079071
vt 0.8062499761581421 0.9624999761581421
vt 0.6375000476837158 0.9187500476837158
vt 0.6812499761581421 0.9625000357627869
vt 0.6375000476837158 0.9625000357627869
vt 0.6375000476837158 0.9187500476837158
vt 0.6812499761581421 0.9187500476837158
vt 0.6812499761581421 0.9625000357627869
vt 0.6312500238418579 0.918749988079071
vt 0.6749999523162842 0.9624999761581421
vt 0.6312500238418579 0.9624999761581421
vt 0.6312500238418579 0.918749988079071
vt 0.6749999523162842 0.918749988079071
vt 0.6749999523162842 0.9624999761581421
vt 0.512499988079071 0.9375
vt 0.5562499761581421 0.981249988079071
vt 0.512499988079071 0.981249988079071
vt 0.512499988079071 0.9375
vt 0.5562499761581421 0.9375
vt 0.5562499761581421 0.981249988079071
vt 0.6937500238418579 0.9125000238418579
vt 0.7374999523162842 0.956250011920929
vt 0.6937500238418579 0.956250011920929
vt 0.6937500238418579 0.9125000238418579
vt 0.7374999523162842 0.9125000238418579
vt 0.7374999523162842 0.956250011920929
vt 0.762499988079071 0.918749988079071
vt 0.8062499761581421 0.9624999761581421
vt 0.762499988079071 0.9624999761581421
vt 0.762499988079071 0.918749988079071
vt 0.8062499761581421 0.918749988079071
vt 0.8062499761581421 0.9624999761581421
vt 0.21250002086162567 0.7250000238418579
vt 0.2562499940395355 0.768750011920929
vt 0.21250002086162567 0.768750011920929
vt 0.21250002086162567 0.7250000238418579
vt 0.2562499940395355 0.7250000238418579
vt 0.2562499940395355 0.768750011920929
vt 0.0625000149011612 0.7437500357627869
vt 0.10625000298023224 0.7875000238418579
vt 0.0625000149011612 0.7875000238418579
vt 0.0625000149011612 0.7437500357627869
vt 0.10625000298023224 0.7437500357627869
vt 0.10625000298023224 0.7875000238418579
vt 0.21250002086162567 0.7000000476837158
vt 0.2562499940395355 0.7437500357627869
vt 0.21250002086162567 0.7437500357627869
vt 0.21250002086162567 0.7000000476837158
vt 0.2562499940395355 0.7000000476837158
vt 0.2562499940395355 0.7437500357627869
vt 0.3687500059604645 0.7250000238418579
vt 0.4124999940395355 0.768750011920929
vt 0.3687500059604645 0.768750011920929
vt 0.3687500059604645 0.7250000238418579
vt 0.4124999940395355 0.7250000238418579
vt 0.4124999940395355 0.768750011920929
vt 0.38750001788139343 0.925000011920929
vt 0.4312500059604645 0.96875
vt 0.38750001788139343 0.96875
vt 0.38750001788139343 0.925000011920929
vt 0.4312500059604645 0.925000011920929
vt 0.4312500059604645 0.96875
vt 0.26875001192092896 0.9437500238418579
vt 0.3125 0.987500011920929
vt 0.26875001192092896 0.987500011920929
vt 0.26875001192092896 0.9437500238418579
vt 0.3125 0.9437500238418579
vt 0.3125 0.987500011920929
vt 0.45000001788139343 0.9187500476837158
vt 0.4937500059604645 0.9625000357627869
vt 0.45000001788139343 0.9625000357627869
vt 0.45000001788139343 0.9187500476837158
vt 0.4937500059604645 0.9187500476837158
vt 0.4937500059604645 0.9625000357627869
vt 0.518750011920929 0.925000011920929
vt 0.5625 0.96875
vt 0.518750011920929 0.96875
vt 0.518750011920929 0.925000011920929
vt 0.5625 0.925000011920929
vt 0.5625 0.96875
vt 0.26875001192092896 0.9437500238418579
vt 0.3125 0.987500011920929
vt 0.26875001192092896 0.987500011920929
vt 0.26875001192092896 0.9437500238418579
vt 0.3125 0.9437500238418579
vt 0.3125 0.987500011920929
vt 0.518750011920929 0.925000011920929
vt 0.5625 0.96875
vt 0.518750011920929 0.96875
vt 0.518750011920929 0.925000011920929
vt 0.5625 0.925000011920929
vt 0.5625 0.96875
vt 0.38750001788139343 0.925000011920929
vt 0.4312500059604645 0.96875
vt 0.38750001788139343 0.96875
vt 0.38750001788139343 0.925000011920929
vt 0.4312500059604645 0.925000011920929
vt 0.4312500059604645 0.96875
vt 0.45000001788139343 0.9187500476837158
vt 0.4937500059604645 0.9625000357627869
vt 0.45000001788139343 0.9625000357627869
vt 0.45000001788139343 0.9187500476837158
vt 0.4937500059604645 0.9187500476837158
vt 0.4937500059604645 0.9625000357627869
vn 0.000017872186201042074 -0.9191450254755926 -0.3939193087728208
vn 0.000017872186201042074 -0.9191450254755926 -0.3939193087728208
vn 0.000017872186201042074 -0.9191450254755926 -0.3939193087728208
vn 0.000017872186201042074 -0.9191450254755926 -0.3939193087728208
vn 0.000017872186201042074 -0.9191450254755926 -0.3939193087728208
vn 0.000017872186201042074 -0.9191450254755926 -0.3939193087728208
vn 0.00001787211057190253 -0.9191411359599724 0.3939283841852463
vn 0.00001787211057190253 -0.9191411359599724 0.3939283841852463
vn 0.00001787211057190253 -0.9191411359599724 0.3939283841852463
vn 0.000017872110394365494 -0.9191411359603031 0.3939283841844749
vn 0.000017872110394365494 -0.9191411359603031 0.3939283841844749
vn 0.000017872110394365494 -0.9191411359603031 0.3939283841844749
vn -0.000017871576856944305 0.9191136967726207 0.3939924010505453
vn -0.000017871576856944305 0.9191136967726207 0.3939924010505453
vn -0.000017871576856944305 0.9191136967726207 0.3939924010505453
vn 0.000017872871004948004 0.9191802547693568 0.3938370969356504
vn 0.000017872871004948004 0.9191802547693568 0.3938370969356504
vn 0.000017872871004948004 0.9191802547693568 0.3938370969356504
vn 0.00001787150062243186 0.919109777645118 -0.3940015435474217
vn 0.00001787150062243186 0.919109777645118 -0.3940015435474217
vn 0.00001787150062243186 0.919109777645118 -0.3940015435474217
vn -0.000017872795026357072 0.9191763366287649 -0.39384624139667324
vn -0.000017872795026357072 0.9191763366287649 -0.39384624139667324
vn -0.000017872795026357072 0.9191763366287649 -0.39384624139667324
vn 0 0 0
vn 0 0 0
vn 0 0 0
vn -0.36649753886893527 0.8551608657615078 0.36657802399085754
vn -0.36649753886893527 0.8551608657615078 0.36657802399085754
vn -0.36649753886893527 0.8551608657615078 0.36657802399085754
vn 0 0 0
vn 0 0 0
vn 0 0 0
vn -0.3664961427872174 0.8551577247709016 -0.36658674701460026
vn -0.3664961427872174 0.8551577247709016 -0.36658674701460026
vn -0.3664961427872174 0.8551577247709016 -0.36658674701460026
vn 0 0 0
vn 0 0 0
vn 0 0 0
vn -0.36658540910986515 -0.8551545774275647 0.36650482470553675
vn -0.36658540910986515 -0.8551545774275647 0.36650482470553675
vn -0.36658540910986515 -0.8551545774275647 0.36650482470553675
vn 0 0 0
vn 0 0 0
vn 0 0 0
vn -0.36658668708236986 -0.8551577333447101 -0.3664961827287022
vn -0.36658668708236986 -0.8551577333447101 -0.3664961827287022
vn -0.36658668708236986 -0.8551577333447101 -0.3664961827287022
vn -0.9497100486531499 0.28782233293829335 -0.12332529403650218
vn -0.9497100486531499 0.28782233293829335 -0.12332529403650218
vn -0.9497100486531499 0.28782233293829335 -0.12332529403650218
vn -0.9496855305169085 0.28787962950721496 -0.12338035516891206
vn -0.9496855305169085 0.28787962950721496 -0.12338035516891206
vn -0.9496855305169085 0.28787962950721496 -0.12338035516891206
vn -0.9496665324926777 0.2879448295334673 0.123374439039358
vn -0.9496665324926777 0.2879448295334673 0.123374439039358
vn -0.9496665324926777 0.2879448295334673 0.123374439039358
vn -0.9497068951262856 0.28782130592425975 0.12335197284860908
vn -0.9497068951262856 0.28782130592425975 0.12335197284860908
vn -0.9497068951262856 0.28782130592425975 0.12335197284860908
vn -0.9497507443197117 -0.28769903496135363 -0.12329959021204911
vn -0.9497507443197117 -0.28769903496135363 -0.12329959021204911
vn -0.9497507443197117 -0.28769903496135363 -0.12329959021204911
vn -0.9497103695917838 -0.28782265841753407 -0.12332206287319807
vn -0.9497103695917838 -0.28782265841753407 -0.12332206287319807
vn -0.9497103695917838 -0.28782265841753407 -0.12332206287319807
vn -0.94970643657629 -0.28782134169641627 0.12335541978218939
vn -0.94970643657629 -0.28782134169641627 0.12335541978218939
vn -0.94970643657629 -0.28782134169641627 0.12335541978218939
vn -0.949730969574458 -0.28776399916137757 0.12330030907426913
vn -0.949730969574458 -0.28776399916137757 0.12330030907426913
vn -0.949730969574458 -0.28776399916137757 0.12330030907426913
vn 0.9287172444203886 0.2815204547699984 0.24130999453460977
vn 0.9287172444203886 0.2815204547699984 0.24130999453460977
vn 0.9287172444203886 0.2815204547699984 0.24130999453460977
vn 0.9752520738602132 0.20321919037523686 0.08709393259341654
vn 0.9752520738602132 0.20321919037523686 0.08709393259341654
vn 0.9752520738602132 0.20321919037523686 0.08709393259341654
vn 0.9907171510968215 0.10321282516830603 -0.08846829513093658
vn 0.9907171510968215 0.10321282516830603 -0.08846829513093658
vn 0.9907171510968215 0.10321282516830603 -0.08846829513093658
vn 0.9496865665213282 0.28787674217130155 -0.12337911770542392
vn 0.9496865665213282 0.28787674217130155 -0.12337911770542392
vn 0.9496865665213282 0.28787674217130155 -0.12337911770542392
vn 0.9287055491112108 -0.28151657823440823 -0.2413595227647644
vn 0.9287055491112108 -0.28151657823440823 -0.2413595227647644
vn 0.9287055491112108 -0.28151657823440823 -0.2413595227647644
vn 0.9752641625690085 -0.20317794577298492 -0.08705478481990865
vn 0.9752641625690085 -0.20317794577298492 -0.08705478481990865
vn 0.9752641625690085 -0.20317794577298492 -0.08705478481990865
vn 0.990723631631934 -0.10316756084247791 0.08844851675322547
vn 0.990723631631934 -0.10316756084247791 0.08844851675322547
vn 0.990723631631934 -0.10316756084247791 0.08844851675322547
vn 0.9496902716246367 -0.28787743280944256 0.12334898321659823
vn 0.9496902716246367 -0.28787743280944256 0.12334898321659823
vn 0.9496902716246367 -0.28787743280944256 0.12334898321659823
vn 0.00004418850209048632 0.7592567586056845 -0.6507911896752794
vn 0.00004418850209048632 0.7592567586056845 -0.6507911896752794
vn 0.00004418850209048632 0.7592567586056845 -0.6507911896752794
vn 0.00004949139603503092 0.7592477737337107 -0.6508016715029286
vn 0.00004949139603503092 0.7592477737337107 -0.6508016715029286
vn 0.00004949139603503092 0.7592477737337107 -0.6508016715029286
vn 0.00003902893453103651 0.7592476097940704 0.650801863472081
vn 0.00003902893453103651 0.7592476097940704 0.650801863472081
vn 0.00003902893453103651 0.7592476097940704 0.650801863472081
vn 0.00004433072298356815 0.7592565906667219 0.6507913855944413
vn 0.00004433072298356815 0.7592565906667219 0.6507913855944413
vn 0.00004433072298356815 0.7592565906667219 0.6507913855944413
vn 0.00004425992690377274 -0.7591860020012559 0.6508737300017632
vn 0.00004425992690377274 -0.7591860020012559 0.6508737300017632
vn 0.00004425992690377274 -0.7591860020012559 0.6508737300017632
vn -0.00003908474588753589 -0.7593271986800106 0.6507090008730094
vn -0.00003908474588753589 -0.7593271986800106 0.6507090008730094
vn -0.00003908474588753589 -0.7593271986800106 0.6507090008730094
vn -0.00004946093069913251 -0.7591771381217843 -0.6508840684076032
vn -0.00004946093069913251 -0.7591771381217843 -0.6508840684076032
vn -0.00004946093069913251 -0.7591771381217843 -0.6508840684076032
vn 0.00004433333005656941 -0.7593360377533579 -0.6506986858781775
vn 0.00004433333005656941 -0.7593360377533579 -0.6506986858781775
vn 0.00004433333005656941 -0.7593360377533579 -0.6506986858781775
vn -0.14092255884214905 0.7516709542871611 -0.6443070765484495
vn -0.14092255884214905 0.7516709542871611 -0.6443070765484495
vn -0.14092255884214905 0.7516709542871611 -0.6443070765484495
vn -0.14092265572169652 0.7516709703225282 -0.6443070366515744
vn -0.14092265572169652 0.7516709703225282 -0.6443070366515744
vn -0.14092265572169652 0.7516709703225282 -0.6443070366515744
vn -0.14092440590159308 0.7516794834285985 0.6442967220262714
vn -0.14092440590159308 0.7516794834285985 0.6442967220262714
vn -0.14092440590159308 0.7516794834285985 0.6442967220262714
vn -0.14092446120008295 0.7516794625929057 0.6442967342393618
vn -0.14092446120008295 0.7516794625929057 0.6442967342393618
vn -0.14092446120008295 0.7516794625929057 0.6442967342393618
vn -0.14093715325218364 -0.7517480087560857 0.6442139785540443
vn -0.14093715325218364 -0.7517480087560857 0.6442139785540443
vn -0.14093715325218364 -0.7517480087560857 0.6442139785540443
vn -0.14093729820393602 -0.7517480327437428 0.6442139188506311
vn -0.14093729820393602 -0.7517480327437428 0.6442139188506311
vn -0.14093729820393602 -0.7517480327437428 0.6442139188506311
vn -0.14093874524299446 -0.7517565876757663 -0.6442036191883885
vn -0.14093874524299446 -0.7517565876757663 -0.6442036191883885
vn -0.14093874524299446 -0.7517565876757663 -0.6442036191883885
vn -0.14093897572802352 -0.751756500829238 -0.6442036701088528
vn -0.14093897572802352 -0.751756500829238 -0.6442036701088528
vn -0.14093897572802352 -0.751756500829238 -0.6442036701088528
vn 0 0 0
vn 0 0 0
vn 0 0 0
vn 0.788278521742506 0.46717928970035394 -0.4004503507733788
vn 0.788278521742506 0.46717928970035394 -0.4004503507733788
vn 0.788278521742506 0.46717928970035394 -0.4004503507733788
vn 0 0 0
vn 0 0 0
vn 0 0 0
vn 0.7883096368228196 -0.46719790001740175 0.4003673796797187
vn 0.7883096368228196 -0.46719790001740175 0.4003673796797187
vn 0.7883096368228196 -0.46719790001740175 0.4003673796797187
vn 0 0 0
vn 0 0 0
vn 0 0 0
vn 0.7882819168696511 0.4671813867234319 0.40044122094944196
vn 0.7882819168696511 0.4671813867234319 0.40044122094944196
vn 0.7882819168696511 0.4671813867234319 0.40044122094944196
vn 0 0 0
vn 0 0 0
vn 0 0 0
vn 0.7883132330407572 -0.46719977677189517 -0.40035810869410443
vn 0.7883132330407572 -0.46719977677189517 -0.40035810869410443
vn 0.7883132330407572 -0.46719977677189517 -0.40035810869410443
g Scene
f 1/1/1 3/2/2 2/3/3
f 1/4/4 4/5/5 3/6/6
f 5/7/7 6/8/8 7/9/9
f 5/10/10 8/11/11 6/12/12
f 9/13/13 10/14/14 11/15/15
f 9/16/16 12/17/17 10/18/18
f 13/19/19 14/20/20 15/21/21
f 13/22/22 16/23/23 14/24/24
f 17/25/25 18/26/26 19/27/27
f 17/28/28 20/29/29 18/30/30
f 21/31/31 22/32/32 23/33/33
f 21/34/34 24/35/35 22/36/36
f 25/37/37 26/38/38 27/39/39
f 25/40/40 28/41/41 26/42/42
f 29/43/43 30/44/44 31/45/45
f 29/46/46 32/47/47 30/48/48
f 33/49/49 34/50/50 35/51/51
f 33/52/52 36/53/53 34/54/54
f 37/55/55 38/56/56 39/57/57
f 37/58/58 40/59/59 38/60/60
f 41/61/61 42/62/62 43/63/63
f 41/64/64 44/65/65 42/66/66
f 45/67/67 46/68/68 47/69/69
f 45/70/70 48/71/71 46/72/72
f 49/73/73 50/74/74 51/75/75
f 49/76/76 52/77/77 50/78/78
f 53/79/79 54/80/80 55/81/81
f 53/82/82 56/83/83 54/84/84
f 57/85/85 58/86/86 59/87/87
f 57/88/88 60/89/89 58/90/90
f 61/91/91 62/92/92 63/93/93
f 61/94/94 64/95/95 62/96/96
f 65/97/97 66/98/98 67/99/99
f 65/100/100 68/101/101 66/102/102
f 69/103/103 70/104/104 71/105/105
f 69/106/106 72/107/107 70/108/108
f 73/109/109 74/110/110 75/111/111
f 73/112/112 76/113/113 74/114/114
f 77/115/115 78/116/116 79/117/117
f 77/118/118 80/119/119 78/120/120
f 81/121/121 82/122/122 83/123/123
f 81/124/124 84/125/125 82/126/126
f 85/127/127 86/128/128 87/129/129
f 85/130/130 88/131/131 86/132/132
f 89/133/133 90/134/134 91/135/135
f 89/136/136 92/137/137 90/138/138
f 93/139/139 94/140/140 95/141/141
f 93/142/142 96/143/143 94/144/144
f 97/145/145 98/146/146 99/147/147
f 97/148/148 100/149/149 98/150/150
f 101/151/151 102/152/152 103/153/153
f 101/154/154 104/155/155 102/156/156
f 105/157/157 106/158/158 107/159/159
f 105/160/160 108/161/161 106/162/162
f 109/163/163 110/164/164 111/165/165
f 109/166/166 112/167/167 110/168/168
