o Default
v -0.4999500513076782 0.5000144243240356 0.24999992549419403
v -2.1249499320983887 0.5001770257949829 0.24999992549419403
v -2.1249499320983887 0.5001770257949829 -0.25000008940696716
v -0.4999500513076782 0.5000144243240356 -0.25000008940696716
v -2.124999761581421 -0.18750017881393433 0.3749999403953552
v -0.4999500513076782 0.5000144243240356 0.24999992549419403
v -2.1249499320983887 0.5001770257949829 0.24999992549419403
v -0.37499985098838806 -0.18750005960464478 0.3749999403953552
v -0.3749997615814209 -0.18749982118606567 -0.375
v -2.1249499320983887 0.5001770257949829 -0.25000008940696716
v -0.4999500513076782 0.5000144243240356 -0.25000008940696716
v -2.124999761581421 -0.18749982118606567 -0.375
v -0.5 -0.5625 -0.25
v -2.124999761581421 -0.18749982118606567 -0.375
v -0.3749997615814209 -0.18749982118606567 -0.375
v -2.125 -0.5625 -0.25
v -2.125 -0.5625 0.25
v -0.37499985098838806 -0.18750005960464478 0.3749999403953552
v -2.124999761581421 -0.18750017881393433 0.3749999403953552
v -0.5 -0.5625 0.25
v -2.125 -0.5625 0.25
v -0.5 -0.5625 -0.25
v -0.5 -0.5625 0.25
v -2.125 -0.5625 -0.25
v -2.124999761581421 -0.18749982118606567 -0.375
v -2.1249499320983887 0.5001770257949829 0.24999992549419403
v -2.1249499320983887 0.5001770257949829 -0.25000008940696716
v -2.124999761581421 -0.18750017881393433 0.3749999403953552
v -2.125 -0.5625 -0.25
v -2.124999761581421 -0.18750017881393433 0.3749999403953552
v -2.124999761581421 -0.18749982118606567 -0.375
v -2.125 -0.5625 0.25
v -0.5 -0.5625 0.25
v -0.3749997615814209 -0.18749982118606567 -0.375
v -0.37499985098838806 -0.18750005960464478 0.3749999403953552
v -0.5 -0.5625 -0.25
v -0.37499985098838806 -0.18750005960464478 0.3749999403953552
v -0.4999500513076782 0.5000144243240356 -0.25000008940696716
v -0.4999500513076782 0.5000144243240356 0.24999992549419403
v -0.3749997615814209 -0.18749982118606567 -0.375
v -2.9802322387695312e-8 -0.5 0.25
v -2.9802322387695312e-8 0.375 -0.25
v -2.9802322387695312e-8 0.375 0.25
v -2.9802322387695312e-8 -0.5 -0.25
v -2.9802322387695312e-8 -0.5 -0.25
v -0.5 0.375 -0.25
v -2.9802322387695312e-8 0.375 -0.25
v -0.5 -0.5 -0.25
v -0.5 -0.5 -0.25
v -0.5 0.375 0.25
v -0.5 0.375 -0.25
v -0.5 -0.5 0.25
v -0.5 -0.5 0.25
v -2.9802322387695312e-8 0.375 0.25
v -0.5 0.375 0.25
v -2.9802322387695312e-8 -0.5 0.25
v -2.9802322387695312e-8 0.375 0.25
v -0.5 0.375 -0.25
v -0.5 0.375 0.25
v -2.9802322387695312e-8 0.375 -0.25
v -0.5 -0.5 0.25
v -2.9802322387695312e-8 -0.5 -0.25
v -2.9802322387695312e-8 -0.5 0.25
v -0.5 -0.5 -0.25
v -2.124999761581421 -0.18750017881393433 0.3749999403953552
v -0.4999500513076782 0.5000144243240356 0.24999992549419403
v -2.1249499320983887 0.5001770257949829 0.24999992549419403
v -0.37499985098838806 -0.18750005960464478 0.3749999403953552
v -0.06249985843896866 -0.18750017881393433 0.37499991059303284
v 0.8125500082969666 0.5000143647193909 0.24999992549419403
v -0.06244979053735733 0.500176727771759 0.24999992549419403
v 0.9375000596046448 -0.18750017881393433 0.37499991059303284
v -0.0625 -0.5625 0.25
v 0.9375000596046448 -0.18750017881393433 0.37499991059303284
v -0.06249985843896866 -0.18750017881393433 0.37499991059303284
v 0.8125 -0.5625 0.25
v -0.0625000074505806 -0.5625 -0.2499999850988388
v -0.06249985843896866 -0.18750017881393433 0.37499991059303284
v -0.0625000074505806 -0.1875000149011612 -0.3749999701976776
v -0.0625 -0.5625 0.25
v -0.0625000074505806 -0.1875000149011612 -0.3749999701976776
v -0.06244979053735733 0.500176727771759 0.24999992549419403
v -0.06244998052716255 0.5001769661903381 -0.25000008940696716
v -0.06249985843896866 -0.18750017881393433 0.37499991059303284
v 0.9375001788139343 -0.18749994039535522 -0.37499988079071045
v -0.06244998052716255 0.5001769661903381 -0.25000008940696716
v 0.8125501871109009 0.5000147223472595 -0.24999988079071045
v -0.0625000074505806 -0.1875000149011612 -0.3749999701976776
v 0.8125500082969666 0.5000143647193909 0.24999992549419403
v -0.06244998052716255 0.5001769661903381 -0.25000008940696716
v -0.06244979053735733 0.500176727771759 0.24999992549419403
v 0.8125501871109009 0.5000147223472595 -0.24999988079071045
v 0.8125 -0.5625 -0.25
v -0.0625000074505806 -0.1875000149011612 -0.3749999701976776
v 0.9375001788139343 -0.18749994039535522 -0.37499988079071045
v -0.0625000074505806 -0.5625 -0.2499999850988388
v -0.0625 -0.5625 0.25
v 0.8125 -0.5625 -0.25
v 0.8125 -0.5625 0.25
v -0.0625000074505806 -0.5625 -0.2499999850988388
v 0.8125 -0.5625 0.25
v 0.9375001788139343 -0.18749994039535522 -0.37499988079071045
v 0.9375000596046448 -0.18750017881393433 0.37499991059303284
v 0.8125 -0.5625 -0.25
v 0.9375000596046448 -0.18750017881393433 0.37499991059303284
v 0.8125501871109009 0.5000147223472595 -0.24999988079071045
v 0.8125500082969666 0.5000143647193909 0.24999992549419403
v 0.9375001788139343 -0.18749994039535522 -0.37499988079071045
v 1 -1.5625 0.1875
v 0.5 -0.5 -0.1875
v 0.5 -0.5 0.1875
v 1 -1.5625 -0.1875
v 1 -1.5625 -0.1875
v -0.25 -0.5 -0.1875
v 0.5 -0.5 -0.1875
v 0.25 -1.5625 -0.25
v 0.25 -1.5625 -0.25
v -0.25 -0.5 0.1875
v -0.25 -0.5 -0.1875
v 0.25 -1.5625 0.1875
v 0.25 -1.5625 0.1875
v 0.5 -0.5 0.1875
v -0.25 -0.5 0.1875
v 1 -1.5625 0.1875
v 0.5 -0.5 0.1875
v -0.25 -0.5 -0.1875
v -0.25 -0.5 0.1875
v 0.5 -0.5 -0.1875
v 0.25 -1.5625 0.1875
v 1 -1.5625 -0.1875
v 1 -1.5625 0.1875
v 0.25 -1.5625 -0.25
vt 0.11249999701976776 0.675000011920929
vt 0.21250000596046448 1
vt 0.11249999701976776 1
vt 0.11249999701976776 0.675000011920929
vt 0.21250000596046448 0.675000011920929
vt 0.21250000596046448 1
vt 0 1
vt 0.11249999701976776 0.675000011920929
vt 0.11249999701976776 1
vt 0 1
vt 0 0.675000011920929
vt 0.11249999701976776 0.675000011920929
vt 0.21250000596046448 1
vt 0.32499998807907104 0.675000011920929
vt 0.32499998807907104 1
vt 0.21250000596046448 1
vt 0.21250000596046448 0.675000011920929
vt 0.32499998807907104 0.675000011920929
vt 0.5249999761581421 1
vt 0.625 0.675000011920929
vt 0.625 1
vt 0.5249999761581421 1
vt 0.5249999761581421 0.675000011920929
vt 0.625 0.675000011920929
vt 0.32499998807907104 1
vt 0.42500001192092896 0.675000011920929
vt 0.42500001192092896 1
vt 0.32499998807907104 1
vt 0.32499998807907104 0.675000011920929
vt 0.42500001192092896 0.675000011920929
vt 0.42500001192092896 0.675000011920929
vt 0.5249999761581421 1
vt 0.42500001192092896 1
vt 0.42500001192092896 0.675000011920929
vt 0.5249999761581421 0.675000011920929
vt 0.5249999761581421 1
vt 0.8999999761581421 0.887499988079071
vt 1 1
vt 0.8999999761581421 1
vt 0.8999999761581421 0.887499988079071
vt 1 0.887499988079071
vt 1 1
vt 0.8999999761581421 0.7875000238418579
vt 1 0.887499988079071
vt 0.8999999761581421 0.887499988079071
vt 0.8999999761581421 0.7875000238418579
vt 1 0.7875000238418579
vt 1 0.887499988079071
vt 0.8999999761581421 0.7875000238418579
vt 1 0.887499988079071
vt 0.8999999761581421 0.887499988079071
vt 0.8999999761581421 0.7875000238418579
vt 1 0.7875000238418579
vt 1 0.887499988079071
vt 0.8999999761581421 0.887499988079071
vt 1 1
vt 0.8999999761581421 1
vt 0.8999999761581421 0.887499988079071
vt 1 0.887499988079071
vt 1 1
vt 0.8999999761581421 0.887499988079071
vt 1 1
vt 0.8999999761581421 1
vt 0.8999999761581421 0.887499988079071
vt 1 0.887499988079071
vt 1 1
vt 0.800000011920929 0.7874999642372131
vt 0.9000000357627869 1
vt 0.800000011920929 1
vt 0.800000011920929 0.7874999642372131
vt 0.9000000357627869 0.7874999642372131
vt 0.9000000357627869 1
vt 0.8999999761581421 0.887499988079071
vt 1 1
vt 0.8999999761581421 1
vt 0.8999999761581421 0.887499988079071
vt 1 0.887499988079071
vt 1 1
vt 0.7999999523162842 0.7874999642372131
vt 0.8999999761581421 1
vt 0.7999999523162842 1
vt 0.7999999523162842 0.7874999642372131
vt 0.8999999761581421 0.7874999642372131
vt 0.8999999761581421 1
vt 0.8999999761581421 0.8999999761581421
vt 0.7999999523162842 1
vt 0.7999999523162842 0.8999999761581421
vt 0.8999999761581421 0.8999999761581421
vt 0.8999999761581421 1
vt 0.7999999523162842 1
vt 0.8999999761581421 0.7874998450279236
vt 0.7999999523162842 0.8999999761581421
vt 0.7999999523162842 0.7874999642372131
vt 0.8999999761581421 0.7874998450279236
vt 0.8999999761581421 0.8999999165534973
vt 0.7999999523162842 0.8999999761581421
vt 0 1
vt 0.11249999701976776 0.675000011920929
vt 0.11249999701976776 1
vt 0 1
vt 0 0.675000011920929
vt 0.11249999701976776 0.675000011920929
vt 0.21250000596046448 1
vt 0.32499998807907104 0.675000011920929
vt 0.32499998807907104 1
vt 0.21250000596046448 1
vt 0.21250000596046448 0.675000011920929
vt 0.32499998807907104 0.675000011920929
vt 0.32499998807907104 1
vt 0.42500001192092896 0.675000011920929
vt 0.42500001192092896 1
vt 0.32499998807907104 1
vt 0.32499998807907104 0.675000011920929
vt 0.42500001192092896 0.675000011920929
vt 0.8999999761581421 0.7875000238418579
vt 1 0.887499988079071
vt 0.8999999761581421 0.887499988079071
vt 0.8999999761581421 0.7875000238418579
vt 1 0.7875000238418579
vt 1 0.887499988079071
vt 0.8999999761581421 0.887499988079071
vt 1 1
vt 0.8999999761581421 1
vt 0.8999999761581421 0.887499988079071
vt 1 0.887499988079071
vt 1 1
vt 0.21250000596046448 1
vt 0.32499998807907104 0.675000011920929
vt 0.32499998807907104 1
vt 0.21250000596046448 1
vt 0.21250000596046448 0.675000011920929
vt 0.32499998807907104 0.675000011920929
vt 0.11249999701976776 0.675000011920929
vt 0.21250000596046448 1
vt 0.11249999701976776 1
vt 0.11249999701976776 0.675000011920929
vt 0.21250000596046448 0.675000011920929
vt 0.21250000596046448 1
vt 0.5249999761581421 1
vt 0.625 0.675000011920929
vt 0.625 1
vt 0.5249999761581421 1
vt 0.5249999761581421 0.675000011920929
vt 0.625 0.675000011920929
vt 0.42500001192092896 0.675000011920929
vt 0.5249999761581421 1
vt 0.42500001192092896 1
vt 0.42500001192092896 0.675000011920929
vt 0.5249999761581421 0.675000011920929
vt 0.5249999761581421 1
vt 0.8999999761581421 0.7875000238418579
vt 1 0.887499988079071
vt 0.8999999761581421 0.887499988079071
vt 0.8999999761581421 0.7875000238418579
vt 1 0.7875000238418579
vt 1 0.887499988079071
vt 0.8999999761581421 0.887499988079071
vt 1 1
vt 0.8999999761581421 1
vt 0.8999999761581421 0.887499988079071
vt 1 0.887499988079071
vt 1 1
vt -2.533197474008375e-8 0.4000000059604645
vt 0.11250001192092896 0.675000011920929
vt -2.533197474008375e-8 0.675000011920929
vt -2.533197474008375e-8 0.4000000059604645
vt 0.11250001192092896 0.4000000059604645
vt 0.11250001192092896 0.675000011920929
vt -2.3841858265427618e-8 0.4000000059604645
vt 0.11249998956918716 0.675000011920929
vt -2.3841858265427618e-8 0.675000011920929
vt -2.3841858265427618e-8 0.4000000059604645
vt 0.11249998956918716 0.4000000059604645
vt 0.11249998956918716 0.675000011920929
vt -2.3841858265427618e-8 0.3999999463558197
vt 0.11250000447034836 0.6749999523162842
vt -2.3841858265427618e-8 0.6749999523162842
vt -2.3841858265427618e-8 0.3999999463558197
vt 0.11250000447034836 0.3999999463558197
vt 0.11250000447034836 0.6749999523162842
vt -2.402812171453661e-8 0.4000000059604645
vt 0.11250000447034836 0.675000011920929
vt -2.402812171453661e-8 0.675000011920929
vt -2.402812171453661e-8 0.4000000059604645
vt 0.11250000447034836 0.4000000059604645
vt 0.11250000447034836 0.675000011920929
vt 0.8999999761581421 0.887499988079071
vt 1 1
vt 0.8999999761581421 1
vt 0.8999999761581421 0.887499988079071
vt 1 0.887499988079071
vt 1 1
vt -2.3841858265427618e-8 0.2874999940395355
vt 0.11250000447034836 0.4000000059604645
vt -2.3841858265427618e-8 0.4000000059604645
vt -2.3841858265427618e-8 0.2874999940395355
vt 0.11250000447034836 0.2874999940395355
vt 0.11250000447034836 0.4000000059604645
vn 0.00010006245049945608 0.9999999949937529 0
vn 0.00010006245049945608 0.9999999949937529 0
vn 0.00010006245049945608 0.9999999949937529 0
vn 0.00010006245049945608 0.9999999949937529 0
vn 0.00010006245049945608 0.9999999949937529 0
vn 0.00010006245049945608 0.9999999949937529 0
vn 0.000017895252374579176 0.17884083585468852 0.9838780184100853
vn 0.000017895252374579176 0.17884083585468852 0.9838780184100853
vn 0.000017895252374579176 0.17884083585468852 0.9838780184100853
vn -1.2185356809973531e-8 0.17888180869422965 0.9838705700031285
vn -1.2185356809973531e-8 0.17888180869422965 0.9838705700031285
vn -1.2185356809973531e-8 0.17888180869422965 0.9838705700031285
vn 0.000017899659078293758 0.1788848753887048 -0.9838700122662394
vn 0.000017899659078293758 0.1788848753887048 -0.9838700122662394
vn 0.000017899659078293758 0.1788848753887048 -0.9838700122662394
vn 0 0.17884078270710022 -0.9838780282335365
vn 0 0.17884078270710022 -0.9838780282335365
vn 0 0.17884078270710022 -0.9838780282335365
vn 0 -0.31622763030665857 -0.9486833432872295
vn 0 -0.31622763030665857 -0.9486833432872295
vn 0 -0.31622763030665857 -0.9486833432872295
vn 0 -0.31622763030665857 -0.9486833432872295
vn 0 -0.31622763030665857 -0.9486833432872295
vn 0 -0.31622763030665857 -0.9486833432872295
vn 2.154130814230996e-8 -0.3162277660168502 0.9486832980505095
vn 2.154130814230996e-8 -0.3162277660168502 0.9486832980505095
vn 2.154130814230996e-8 -0.3162277660168502 0.9486832980505095
vn 0 -0.31622767554332964 0.948683328208345
vn 0 -0.31622767554332964 0.948683328208345
vn 0 -0.31622767554332964 0.948683328208345
vn 0 -1 0
vn 0 -1 0
vn 0 -1 0
vn 0 -1 0
vn 0 -1 0
vn 0 -1 0
vn -0.99999999737473 0.0000724606086713051 0
vn -0.99999999737473 0.0000724606086713051 0
vn -0.99999999737473 0.0000724606086713051 0
vn -0.9999999973747322 0.00007246057726856998 3.455189849244105e-11
vn -0.9999999973747322 0.00007246057726856998 3.455189849244105e-11
vn -0.9999999973747322 0.00007246057726856998 3.455189849244105e-11
vn -0.9999999999997979 6.357826754941768e-7 3.031648283107987e-13
vn -0.9999999999997979 6.357826754941768e-7 3.031648283107987e-13
vn -0.9999999999997979 6.357826754941768e-7 3.031648283107987e-13
vn -0.9999999999997979 6.357831807690834e-7 0
vn -0.9999999999997979 6.357831807690834e-7 0
vn -0.9999999999997979 6.357831807690834e-7 0
vn 0.9486831686230924 -0.31622815429883694 1.2565624579184486e-8
vn 0.9486831686230924 -0.31622815429883694 1.2565624579184486e-8
vn 0.9486831686230924 -0.31622815429883694 1.2565624579184486e-8
vn 0.9486831623402762 -0.31622817314725954 0
vn 0.9486831623402762 -0.31622817314725954 0
vn 0.9486831623402762 -0.31622817314725954 0
vn 0.9838831136848405 0.1788128032491612 0
vn 0.9838831136848405 0.1788128032491612 0
vn 0.9838831136848405 0.1788128032491612 0
vn 0.983883085835358 0.17881295648543868 1.7413112551577227e-7
vn 0.983883085835358 0.17881295648543868 1.7413112551577227e-7
vn 0.983883085835358 0.17881295648543868 1.7413112551577227e-7
vn 1 0 0
vn 1 0 0
vn 1 0 0
vn 1 0 0
vn 1 0 0
vn 1 0 0
vn 0 0 -1
vn 0 0 -1
vn 0 0 -1
vn 0 0 -1
vn 0 0 -1
vn 0 0 -1
vn -1 0 0
vn -1 0 0
vn -1 0 0
vn -1 0 0
vn -1 0 0
vn -1 0 0
vn 0 0 1
vn 0 0 1
vn 0 0 1
vn 0 0 1
vn 0 0 1
vn 0 0 1
vn 0 1 0
vn 0 1 0
vn 0 1 0
vn 0 1 0
vn 0 1 0
vn 0 1 0
vn 0 -1 0
vn 0 -1 0
vn 0 -1 0
vn 0 -1 0
vn 0 -1 0
vn 0 -1 0
vn 0.000017895252374579176 0.17884083585468852 0.9838780184100853
vn 0.000017895252374579176 0.17884083585468852 0.9838780184100853
vn 0.000017895252374579176 0.17884083585468852 0.9838780184100853
vn -1.2185356809973531e-8 0.17888180869422965 0.9838705700031285
vn -1.2185356809973531e-8 0.17888180869422965 0.9838705700031285
vn -1.2185356809973531e-8 0.17888180869422965 0.9838705700031285
vn 0.00003318532110385516 0.1788408684525278 0.9838780120878199
vn 0.00003318532110385516 0.1788408684525278 0.9838780120878199
vn 0.00003318532110385516 0.1788408684525278 0.9838780120878199
vn 0 0.17888175454185923 0.9838705798488061
vn 0 0.17888175454185923 0.9838705798488061
vn 0 0.17888175454185923 0.9838705798488061
vn 0 -0.31622769816168594 0.948683320668895
vn 0 -0.31622769816168594 0.948683320668895
vn 0 -0.31622769816168594 0.948683320668895
vn 0 -0.316227698161686 0.9486833206688952
vn 0 -0.316227698161686 0.9486833206688952
vn 0 -0.316227698161686 0.9486833206688952
vn -0.9999999999999781 6.622739317172007e-8 1.986821953050031e-7
vn -0.9999999999999781 6.622739317172007e-8 1.986821953050031e-7
vn -0.9999999999999781 6.622739317172007e-8 1.986821953050031e-7
vn -0.9999999999999306 3.725292108866199e-7 1.4901161637935844e-8
vn -0.9999999999999306 3.725292108866199e-7 1.4901161637935844e-8
vn -0.9999999999999306 3.725292108866199e-7 1.4901161637935844e-8
vn -0.9999999973588362 0.00007267863099058519 3.8001425398608314e-7
vn -0.9999999973588362 0.00007267863099058519 3.8001425398608314e-7
vn -0.9999999973588362 0.00007267863099058519 3.8001425398608314e-7
vn -0.9999999973468983 0.00007284342146484846 1.9869810026267962e-7
vn -0.9999999973468983 0.00007284342146484846 1.9869810026267962e-7
vn -0.9999999973468983 0.00007284342146484846 1.9869810026267962e-7
vn 0.00003340418377444684 0.17888762172375716 -0.9838695125260151
vn 0.00003340418377444684 0.17888762172375716 -0.9838695125260151
vn 0.00003340418377444684 0.17888762172375716 -0.9838695125260151
vn 7.464086681470587e-8 0.1788407076646943 -0.983878041874086
vn 7.464086681470587e-8 0.1788407076646943 -0.983878041874086
vn 7.464086681470587e-8 0.1788407076646943 -0.983878041874086
vn 0.0001855578136009034 0.9999999827840351 4.767666275994337e-7
vn 0.0001855578136009034 0.9999999827840351 4.767666275994337e-7
vn 0.0001855578136009034 0.9999999827840351 4.767666275994337e-7
vn 0.00018542149606466278 0.9999999828091785 7.153223140407545e-7
vn 0.00018542149606466278 0.9999999828091785 7.153223140407545e-7
vn 0.00018542149606466278 0.9999999828091785 7.153223140407545e-7
vn 1.083796681644215e-7 -0.31622748187356886 -0.9486833927648833
vn 1.083796681644215e-7 -0.31622748187356886 -0.9486833927648833
vn 1.083796681644215e-7 -0.31622748187356886 -0.9486833927648833
vn -1.615598027215653e-8 -0.3162277433984643 -0.9486833055899712
vn -1.615598027215653e-8 -0.3162277433984643 -0.9486833055899712
vn -1.615598027215653e-8 -0.3162277433984643 -0.9486833055899712
vn 0 -1 0
vn 0 -1 0
vn 0 -1 0
vn 0 -1 0
vn 0 -1 0
vn 0 -1 0
vn 0.9486832025506512 -0.3162280525162776 5.026295749001052e-8
vn 0.9486832025506512 -0.3162280525162776 5.026295749001052e-8
vn 0.9486832025506512 -0.3162280525162776 5.026295749001052e-8
vn 0.9486831774191599 -0.3162281279106697 0
vn 0.9486831774191599 -0.3162281279106697 0
vn 0.9486831774191599 -0.3162281279106697 0
vn 0.9838831385826914 0.17881266625282058 4.79761001168281e-7
vn 0.9838831385826914 0.17881266625282058 4.79761001168281e-7
vn 0.9838831385826914 0.17881266625282058 4.79761001168281e-7
vn 0.9838831812104809 0.17881243170176553 2.1322702054362262e-7
vn 0.9838831812104809 0.17881243170176553 2.1322702054362262e-7
vn 0.9838831812104809 0.17881243170176553 2.1322702054362262e-7
vn 0.9048187022009941 0.4257970363298796 0
vn 0.9048187022009941 0.4257970363298796 0
vn 0.9048187022009941 0.4257970363298796 0
vn 0.9048187022009941 0.4257970363298796 0
vn 0.9048187022009941 0.4257970363298796 0
vn 0.9048187022009941 0.4257970363298796 0
vn 0 0 -1
vn 0 0 -1
vn 0 0 -1
vn 0.08265194379316246 0.09723758093313231 -0.9918233255179496
vn 0.08265194379316246 0.09723758093313231 -0.9918233255179496
vn 0.08265194379316246 0.09723758093313231 -0.9918233255179496
vn -0.9048187022009941 -0.4257970363298796 0
vn -0.9048187022009941 -0.4257970363298796 0
vn -0.9048187022009941 -0.4257970363298796 0
vn -0.9048187022009941 -0.4257970363298796 0
vn -0.9048187022009941 -0.4257970363298796 0
vn -0.9048187022009941 -0.4257970363298796 0
vn 0 0 1
vn 0 0 1
vn 0 0 1
vn 0 0 1
vn 0 0 1
vn 0 0 1
vn 0 1 0
vn 0 1 0
vn 0 1 0
vn 0 1 0
vn 0 1 0
vn 0 1 0
vn 0 -1 0
vn 0 -1 0
vn 0 -1 0
vn 0 -1 0
vn 0 -1 0
vn 0 -1 0
g Scene
f 1/1/1 3/2/2 2/3/3
f 1/4/4 4/5/5 3/6/6
f 5/7/7 6/8/8 7/9/9
f 5/10/10 8/11/11 6/12/12
f 9/13/13 10/14/14 11/15/15
f 9/16/16 12/17/17 10/18/18
f 13/19/19 14/20/20 15/21/21
f 13/22/22 16/23/23 14/24/24
f 17/25/25 18/26/26 19/27/27
f 17/28/28 20/29/29 18/30/30
f 21/31/31 22/32/32 23/33/33
f 21/34/34 24/35/35 22/36/36
f 25/37/37 26/38/38 27/39/39
f 25/40/40 28/41/41 26/42/42
f 29/43/43 30/44/44 31/45/45
f 29/46/46 32/47/47 30/48/48
f 33/49/49 34/50/50 35/51/51
f 33/52/52 36/53/53 34/54/54
f 37/55/55 38/56/56 39/57/57
f 37/58/58 40/59/59 38/60/60
f 41/61/61 42/62/62 43/63/63
f 41/64/64 44/65/65 42/66/66
f 45/67/67 46/68/68 47/69/69
f 45/70/70 48/71/71 46/72/72
f 49/73/73 50/74/74 51/75/75
f 49/76/76 52/77/77 50/78/78
f 53/79/79 54/80/80 55/81/81
f 53/82/82 56/83/83 54/84/84
f 57/85/85 58/86/86 59/87/87
f 57/88/88 60/89/89 58/90/90
f 61/91/91 62/92/92 63/93/93
f 61/94/94 64/95/95 62/96/96
f 65/97/97 66/98/98 67/99/99
f 65/100/100 68/101/101 66/102/102
f 69/103/103 70/104/104 71/105/105
f 69/106/106 72/107/107 70/108/108
f 73/109/109 74/110/110 75/111/111
f 73/112/112 76/113/113 74/114/114
f 77/115/115 78/116/116 79/117/117
f 77/118/118 80/119/119 78/120/120
f 81/121/121 82/122/122 83/123/123
f 81/124/124 84/125/125 82/126/126
f 85/127/127 86/128/128 87/129/129
f 85/130/130 88/131/131 86/132/132
f 89/133/133 90/134/134 91/135/135
f 89/136/136 92/137/137 90/138/138
f 93/139/139 94/140/140 95/141/141
f 93/142/142 96/143/143 94/144/144
f 97/145/145 98/146/146 99/147/147
f 97/148/148 100/149/149 98/150/150
f 101/151/151 102/152/152 103/153/153
f 101/154/154 104/155/155 102/156/156
f 105/157/157 106/158/158 107/159/159
f 105/160/160 108/161/161 106/162/162
f 109/163/163 110/164/164 111/165/165
f 109/166/166 112/167/167 110/168/168
f 113/169/169 114/170/170 115/171/171
f 113/172/172 116/173/173 114/174/174
f 117/175/175 118/176/176 119/177/177
f 117/178/178 120/179/179 118/180/180
f 121/181/181 122/182/182 123/183/183
f 121/184/184 124/185/185 122/186/186
f 125/187/187 126/188/188 127/189/189
f 125/190/190 128/191/191 126/192/192
f 129/193/193 130/194/194 131/195/195
f 129/196/196 132/197/197 130/198/198
